# xmcd
#
# Track frame offsets: 
#        150
#        18627
#        37337
#        52550
#        68422
#        95832
#        112045
#        127260
#        154145
#        169835
#        194622
#
# Disc length: 2810 seconds
#
# Revision: 4
# Processed by: cddbd v1.5.2PL0 Copyright (c) Steve Scherf et al.
# Submitted via: ExactAudioCopy v1.0b3
#
DISCID=9d0af80b
DTITLE=Pasion - Duo Orientango
DYEAR=2004
DGENRE=Tango
TTITLE0=La Cumparsita
TTITLE1=Milonga Triste
TTITLE2=Bahia Blanca
TTITLE3=La Muerte Del Angel
TTITLE4=La Milonga Del Angel
TTITLE5=Anos De Soledad
TTITLE6=Du Ggeo Bi
TTITLE7=El Tango Para Violin
TTITLE8=El Tango Y La Pasion
TTITLE9=Jardin De Mi Papa
TTITLE10=Milyang Arirang
EXTD=YEAR: 2004
EXTT0=
EXTT1=
EXTT2=
EXTT3=
EXTT4=
EXTT5=
EXTT6=
EXTT7=
EXTT8=
EXTT9=
EXTT10=
PLAYORDER=
